<svg width="26" height="26" viewBox="0 0 26 26" fill="none" xmlns="http://www.w3.org/2000/svg">
<path opacity="0.987" fill-rule="evenodd" clip-rule="evenodd" d="M11.7645 0.110931C13.0883 -0.0369769 13.8717 -0.0369769 15.2942 0.110931C17.8121 0.483612 20.1463 1.6475 21.9591 3.43429C20.7341 4.59223 19.5252 5.76708 18.3327 6.9585C16.0489 5.02292 13.4998 4.57616 10.6853 5.61821C8.62067 6.56774 7.18298 8.10646 6.37223 10.2344C5.04734 9.24802 3.73972 8.23869 2.44994 7.20684C2.3603 7.15966 2.25793 7.14239 2.15778 7.15754C4.20657 3.20725 7.40819 0.857773 11.7626 0.109105" fill="#F44336"/>
<path opacity="0.997" fill-rule="evenodd" clip-rule="evenodd" d="M2.15418 7.15749C2.25766 7.14167 2.35565 7.1581 2.44817 7.2068C3.73795 8.23864 5.04558 9.24798 6.37046 10.2343C6.16198 11.0635 6.03055 11.9101 5.97787 12.7634C6.02291 13.5887 6.15377 14.3989 6.37046 15.1938L2.25279 18.4715C0.459636 14.7245 0.426768 10.9532 2.15418 7.15749Z" fill="#FFC107"/>
<path opacity="0.999" fill-rule="evenodd" clip-rule="evenodd" d="M21.7638 22.4413C20.4817 21.3106 19.1395 20.25 17.7429 19.264C19.1429 18.2756 19.9926 16.9194 20.2921 15.1957H13.4317V10.4316C17.3881 10.3987 21.3426 10.4322 25.2954 10.532C26.0452 14.604 25.1791 18.2756 22.6969 21.5466C22.4018 21.8603 22.0891 22.1589 21.7638 22.4413Z" fill="#448AFF"/>
<path opacity="0.993" fill-rule="evenodd" clip-rule="evenodd" d="M6.37042 15.1957C7.86776 18.9171 10.6129 20.6543 14.6058 20.4071C15.7266 20.2774 16.8013 19.8858 17.7429 19.2641C19.1404 20.2525 20.4807 21.3116 21.7638 22.4413C19.7308 24.2682 17.1387 25.3521 14.4104 25.5163C13.7905 25.5659 13.1677 25.5659 12.5478 25.5163C7.90002 24.9685 4.46832 22.6203 2.25275 18.4716L6.37042 15.1957Z" fill="#43A047"/>
</svg>
