<svg width="26" height="22" viewBox="0 0 26 22" fill="none" xmlns="http://www.w3.org/2000/svg">
<g clip-path="url(#clip0_1053_702)">
<path d="M21.32 18.8572H4.68C3.81976 18.8572 3.12 19.5621 3.12 20.4286C3.12 21.2951 3.81976 22 4.68 22H21.32C22.1802 22 22.88 21.2951 22.88 20.4286C22.88 19.5621 22.1802 18.8572 21.32 18.8572Z" fill="#FFB200"/>
<path d="M23.9201 3.14286C22.773 3.14286 21.8401 4.08254 21.8401 5.2381C21.8401 6.0146 22.2667 6.68573 22.8913 7.04841C21.6878 9.91913 19.8109 11.6798 18.0564 11.5207C16.1054 11.3606 14.5139 9.03674 13.6364 5.14909C14.7617 4.86212 15.6001 3.84059 15.6001 2.61905C15.6001 1.17448 14.4342 0 13.0001 0C11.566 0 10.4001 1.17448 10.4001 2.61905C10.4001 3.84059 11.2385 4.86212 12.3638 5.14909C11.4858 9.03674 9.89483 11.3606 7.94381 11.5207C6.19643 11.6798 4.31092 9.91913 3.10893 7.04841C3.73405 6.68573 4.16061 6.0146 4.16061 5.2381C4.16061 4.08254 3.22776 3.14286 2.08061 3.14286C0.933462 3.14286 0.000610352 4.08254 0.000610352 5.2381C0.000610352 6.31283 0.811587 7.19113 1.84752 7.31031L3.85034 17.8095H22.1504L24.1532 7.31031C25.1891 7.19113 26.0001 6.31283 26.0001 5.2381C26.0001 4.08254 25.0672 3.14286 23.9201 3.14286Z" fill="#FFB200"/>
</g>
<defs>
<clipPath id="clip0_1053_702">
<rect width="26" height="22" fill="white"/>
</clipPath>
</defs>
</svg>
