<svg width="26" height="26" viewBox="0 0 26 26" fill="none" xmlns="http://www.w3.org/2000/svg">
<path d="M26 0V9.75H22.75V5.56563L16.2906 11.9844C16.8052 12.7427 17.1979 13.5487 17.4688 14.4024C17.7396 15.256 17.875 16.1427 17.875 17.0625C17.875 19.5542 17.0083 21.6667 15.275 23.4C13.5417 25.1333 11.4292 26 8.9375 26C6.44583 26 4.33333 25.1333 2.6 23.4C0.866666 21.6667 0 19.5542 0 17.0625C0 14.5708 0.866666 12.4583 2.6 10.725C4.33333 8.99167 6.44583 8.125 8.9375 8.125C9.83125 8.125 10.7115 8.25338 11.5781 8.51013C12.4448 8.76688 13.2438 9.16663 13.975 9.70938L20.4344 3.25H16.25V0H26ZM8.9375 11.375C7.36667 11.375 6.02604 11.9302 4.91563 13.0406C3.80521 14.151 3.25 15.4917 3.25 17.0625C3.25 18.6333 3.80521 19.974 4.91563 21.0844C6.02604 22.1948 7.36667 22.75 8.9375 22.75C10.5083 22.75 11.849 22.1948 12.9594 21.0844C14.0698 19.974 14.625 18.6333 14.625 17.0625C14.625 15.4917 14.0698 14.151 12.9594 13.0406C11.849 11.9302 10.5083 11.375 8.9375 11.375Z" fill="white"/>
</svg>
