<svg width="18" height="18" viewBox="0 0 18 18" fill="none" xmlns="http://www.w3.org/2000/svg">
<g clip-path="url(#clip0_1386_12591)">
<mask id="mask0_1386_12591" style="mask-type:luminance" maskUnits="userSpaceOnUse" x="0" y="0" width="18" height="19">
<path d="M18 0.5H0V18.5H18V0.5Z" fill="white"/>
</mask>
<g mask="url(#mask0_1386_12591)">
<path d="M15.0741 13.6701C15.3985 13.6701 15.6626 13.4094 15.6667 13.0851C15.6667 12.6651 15.4192 12.3351 14.9992 12.0876L14.4142 11.8401C14.0842 11.7576 13.8292 11.5101 13.8292 11.1726L13.3267 6.42507C13.1617 5.25507 12.4117 4.34007 11.3242 3.84507L10.2442 3.42507C9.91421 3.26007 9.65921 2.92257 9.57671 2.59257L9.52474 2.40819C9.45791 2.17123 9.24169 2.00757 8.99546 2.00757C8.74924 2.00757 8.53309 2.17123 8.46619 2.40819L8.41421 2.59257C8.33171 2.92257 8.08421 3.26007 7.74671 3.42507L6.66672 3.84507C5.58672 4.34757 4.83672 5.26257 4.66422 6.42507L4.16172 11.1726C4.16172 11.5026 3.91422 11.7576 3.57672 11.8401L2.99172 12.0876C2.57172 12.3351 2.32422 12.6726 2.32422 13.0851C2.32422 13.4082 2.58613 13.6701 2.90922 13.6701H15.0741Z" fill="white"/>
<path opacity="0.6" d="M5.66992 13.6702C5.66992 15.5002 7.16992 17.0002 8.99994 17.0002C10.8299 17.0002 12.3299 15.5002 12.3299 13.6702" fill="white"/>
</g>
</g>
<defs>
<clipPath id="clip0_1386_12591">
<rect width="18" height="18" fill="white"/>
</clipPath>
</defs>
</svg>
