<svg width="26" height="26" viewBox="0 0 26 26" fill="none" xmlns="http://www.w3.org/2000/svg">
<g clip-path="url(#clip0_1469_9678)">
<mask id="mask0_1469_9678" style="mask-type:luminance" maskUnits="userSpaceOnUse" x="0" y="0" width="26" height="26">
<path d="M26 0H0V26H26V0Z" fill="white"/>
</mask>
<g mask="url(#mask0_1469_9678)">
<path opacity="0.4" d="M12.7723 15.394L9.22984 18.9365C8.83984 18.5898 8.46067 18.2323 8.09234 17.864C6.9765 16.7373 5.969 15.5565 5.06984 14.3215C4.1815 13.0865 3.4665 11.8515 2.9465 10.6273C2.4265 9.39234 2.1665 8.2115 2.1665 7.08484C2.1665 6.34817 2.2965 5.644 2.5565 4.994C2.8165 4.33317 3.22817 3.7265 3.80234 3.18484C4.49567 2.50234 5.254 2.1665 6.05567 2.1665C6.359 2.1665 6.66234 2.2315 6.93317 2.3615C7.21484 2.4915 7.464 2.6865 7.659 2.96817L10.1723 6.51067C10.3673 6.7815 10.5082 7.03067 10.6057 7.269C10.7032 7.4965 10.7573 7.724 10.7573 7.92984C10.7573 8.18984 10.6815 8.44984 10.5298 8.699C10.389 8.94817 10.1832 9.20817 9.92317 9.46817L9.09984 10.324C8.98067 10.4432 8.9265 10.584 8.9265 10.7573C8.9265 10.844 8.93734 10.9198 8.959 11.0065C8.9915 11.0932 9.024 11.1582 9.04567 11.2232C9.24067 11.5807 9.5765 12.0465 10.0532 12.6098C10.5407 13.1732 11.0607 13.7473 11.624 14.3215C12.014 14.7007 12.3932 15.069 12.7723 15.394Z" fill="white"/>
<path d="M23.8007 19.8565C23.8007 20.1598 23.7466 20.474 23.6382 20.7773C23.6057 20.864 23.5732 20.9507 23.5299 21.0373C23.3457 21.4273 23.1074 21.7957 22.7932 22.1423C22.2624 22.7273 21.6774 23.1498 21.0166 23.4207C21.0057 23.4207 20.9949 23.4315 20.9841 23.4315C20.3449 23.6915 19.6516 23.8323 18.9041 23.8323C17.7991 23.8323 16.6182 23.5723 15.3724 23.0415C14.1266 22.5107 12.8807 21.7957 11.6457 20.8965C11.2232 20.5823 10.8007 20.2682 10.3999 19.9323L13.9424 16.3898C14.2457 16.6173 14.5166 16.7907 14.7441 16.9098C14.7982 16.9315 14.8632 16.964 14.9391 16.9965C15.0257 17.029 15.1124 17.0398 15.2099 17.0398C15.3941 17.0398 15.5349 16.9748 15.6541 16.8557L16.4774 16.0432C16.7482 15.7723 17.0082 15.5665 17.2574 15.4365C17.5066 15.2848 17.7557 15.209 18.0266 15.209C18.2324 15.209 18.4491 15.2523 18.6874 15.3498C18.9257 15.4473 19.1749 15.5882 19.4457 15.7723L23.0316 18.3182C23.3132 18.5132 23.5082 18.7407 23.6274 19.0115C23.7357 19.2823 23.8007 19.5532 23.8007 19.8565Z" fill="white"/>
</g>
</g>
<defs>
<clipPath id="clip0_1469_9678">
<rect width="26" height="26" fill="white"/>
</clipPath>
</defs>
</svg>
