<svg width="34" height="34" viewBox="0 0 34 34" fill="none" xmlns="http://www.w3.org/2000/svg">
<g clip-path="url(#clip0_1456_6092)">
<mask id="mask0_1456_6092" style="mask-type:luminance" maskUnits="userSpaceOnUse" x="0" y="0" width="34" height="34">
<path d="M34 0H0V34H34V0Z" fill="white"/>
</mask>
<g mask="url(#mask0_1456_6092)">
<path d="M31.1672 25.9662C31.1672 26.4762 31.0538 27.0003 30.813 27.5103C30.5722 28.0203 30.2605 28.502 29.8497 28.9553C29.1555 29.7203 28.3905 30.2728 27.5263 30.627C26.6763 30.9812 25.7413 31.1653 24.7497 31.1653C23.3047 31.1653 21.7605 30.8253 20.1313 30.1312C18.5022 29.437 16.8588 28.502 15.2438 27.3262C14.4222 26.717 13.6146 26.0937 12.8354 25.4137L17.4538 20.7953C17.468 20.7953 17.468 20.7953 17.4822 20.8095C18.2188 21.4328 18.828 21.8578 19.3097 22.1128C19.3805 22.1412 19.4655 22.1837 19.5647 22.2262C19.678 22.2687 19.7913 22.2828 19.9188 22.2828C20.1597 22.2828 20.3438 22.1978 20.4997 22.042L21.5763 20.9795C21.9305 20.6253 22.2705 20.3562 22.5963 20.1862C22.9222 19.9878 23.248 19.8887 23.6022 19.8887C23.8713 19.8887 24.1547 19.9453 24.4663 20.0728C24.778 20.2003 25.1038 20.3845 25.458 20.6253L30.1613 23.9545C30.5297 24.2095 30.7847 24.507 30.9405 24.8612C31.0822 25.2153 31.1672 25.5695 31.1672 25.9662Z" fill="white"/>
<path opacity="0.4" d="M15.2435 18.7568L10.6252 23.3752C10.611 23.3752 10.611 23.3752 10.5968 23.361C9.13766 21.8877 7.82016 20.3435 6.63016 18.7285C5.48266 17.1418 4.56183 15.541 3.88183 13.9685C3.86766 13.9402 3.86766 13.926 3.8535 13.8977C3.1735 12.2827 2.8335 10.7385 2.8335 9.26516C2.8335 8.30183 3.0035 7.381 3.3435 6.531C3.62683 5.8085 4.05183 5.1285 4.63266 4.51933C4.73183 4.406 4.84516 4.2785 4.97266 4.16516C5.19933 3.9385 5.426 3.74016 5.66683 3.58433C5.681 3.58433 5.681 3.58433 5.681 3.58433C6.38933 3.07433 7.14016 2.8335 7.9335 2.8335C8.33016 2.8335 8.72683 2.9185 9.081 3.0885C9.421 3.24433 9.7185 3.471 9.95933 3.79683C9.98766 3.82516 10.0018 3.8535 10.0302 3.88183L13.3168 8.51433C13.5718 8.8685 13.756 9.19433 13.8835 9.506C14.011 9.8035 14.0818 10.101 14.0818 10.3702C14.0818 10.7102 13.9827 11.0502 13.7843 11.376C13.6002 11.7018 13.331 12.0418 12.991 12.3818L11.9143 13.501C11.7585 13.6568 11.6877 13.841 11.6877 14.0677C11.6877 14.181 11.7018 14.2802 11.7302 14.3935C11.7727 14.5068 11.8152 14.5918 11.8435 14.6768C12.0985 15.1443 12.5377 15.7535 13.161 16.4902C13.7985 17.2268 14.4785 17.9777 15.2152 18.7285C15.2293 18.7427 15.2293 18.7427 15.2435 18.7568Z" fill="white"/>
<path d="M30.8408 3.16055C30.4158 2.73555 29.7216 2.73555 29.2966 3.16055L3.15908 29.3123C2.73408 29.7373 2.73408 30.4314 3.15908 30.8564C3.37158 31.0548 3.64075 31.1681 3.92408 31.1681C4.20742 31.1681 4.47658 31.0548 4.68908 30.8423L30.8408 4.69055C31.2799 4.26555 31.2799 3.58555 30.8408 3.16055Z" fill="white"/>
</g>
</g>
<defs>
<clipPath id="clip0_1456_6092">
<rect width="34" height="34" fill="white"/>
</clipPath>
</defs>
</svg>
