<svg width="30" height="30" viewBox="0 0 30 30" fill="none" xmlns="http://www.w3.org/2000/svg">
<path d="M15 11.25C13.7568 11.25 12.5645 11.7439 11.6854 12.6229C10.8064 13.502 10.3125 14.6943 10.3125 15.9375C10.3125 17.1807 10.8064 18.373 11.6854 19.2521C12.5645 20.1311 13.7568 20.625 15 20.625C16.2432 20.625 17.4355 20.1311 18.3146 19.2521C19.1936 18.373 19.6875 17.1807 19.6875 15.9375C19.6875 14.6943 19.1936 13.502 18.3146 12.6229C17.4355 11.7439 16.2432 11.25 15 11.25Z" fill="#FFB900"/>
<path fill-rule="evenodd" clip-rule="evenodd" d="M11.68 3.83861C13.8917 3.71981 16.1083 3.71981 18.32 3.83861C19.5287 3.90361 20.6075 4.56986 21.235 5.57611L22.2612 7.22236C22.5613 7.70111 23.0675 8.02611 23.6488 8.10986C24.1313 8.17736 24.6112 8.25111 25.0887 8.33111C26.8787 8.62986 28.125 10.1974 28.125 11.9674V22.4999C28.125 23.4944 27.7299 24.4482 27.0267 25.1515C26.3234 25.8548 25.3696 26.2499 24.375 26.2499H5.625C4.63044 26.2499 3.67661 25.8548 2.97335 25.1515C2.27009 24.4482 1.875 23.4944 1.875 22.4999V11.9674C1.875 10.1974 3.12125 8.62986 4.91125 8.33111C5.38875 8.25111 5.86875 8.17736 6.35 8.10861C6.63202 8.07086 6.90236 7.97186 7.14205 7.81854C7.38174 7.66522 7.58498 7.46131 7.7375 7.22111L8.765 5.57736C9.07562 5.07493 9.5027 4.65471 10.0101 4.35227C10.5175 4.04983 11.0903 3.87282 11.68 3.83861ZM8.4375 15.9374C8.4375 14.1969 9.1289 12.5277 10.3596 11.297C11.5903 10.0663 13.2595 9.37486 15 9.37486C16.7405 9.37486 18.4097 10.0663 19.6404 11.297C20.8711 12.5277 21.5625 14.1969 21.5625 15.9374C21.5625 17.6778 20.8711 19.347 19.6404 20.5777C18.4097 21.8085 16.7405 22.4999 15 22.4999C13.2595 22.4999 11.5903 21.8085 10.3596 20.5777C9.1289 19.347 8.4375 17.6778 8.4375 15.9374ZM23.4375 14.0624C23.6861 14.0624 23.9246 13.9636 24.1004 13.7878C24.2762 13.612 24.375 13.3735 24.375 13.1249C24.375 12.8762 24.2762 12.6378 24.1004 12.4619C23.9246 12.2861 23.6861 12.1874 23.4375 12.1874C23.1889 12.1874 22.9504 12.2861 22.7746 12.4619C22.5988 12.6378 22.5 12.8762 22.5 13.1249C22.5 13.3735 22.5988 13.612 22.7746 13.7878C22.9504 13.9636 23.1889 14.0624 23.4375 14.0624Z" fill="#FFB900"/>
</svg>
