<svg width="24" height="24" viewBox="0 0 24 24" fill="none" xmlns="http://www.w3.org/2000/svg">
<g clip-path="url(#clip0_1386_12656)">
<mask id="mask0_1386_12656" style="mask-type:luminance" maskUnits="userSpaceOnUse" x="0" y="0" width="24" height="25">
<path d="M24 0.5H0V24.5H24V0.5Z" fill="white"/>
</mask>
<g mask="url(#mask0_1386_12656)">
<path d="M19.7483 17.2701L18.6683 17.5201C17.8983 17.7001 17.2883 18.3001 17.1083 19.0701L16.8583 20.1501C16.8383 20.2601 16.6683 20.2601 16.6383 20.1501L16.3883 19.0701C16.2083 18.3001 15.6083 17.6901 14.8383 17.5101L13.7583 17.2601C13.6483 17.2401 13.6483 17.0701 13.7583 17.0401L14.8383 16.7901C15.6083 16.6101 16.2183 16.0101 16.3983 15.2401L16.6483 14.1601C16.6683 14.0501 16.8383 14.0501 16.8683 14.1601L17.1183 15.2401C17.2983 16.0101 17.8983 16.6201 18.6683 16.8001L19.7483 17.0501C19.8583 17.0701 19.8583 17.2401 19.7483 17.2701Z" stroke="white" stroke-width="1.28571" stroke-miterlimit="10"/>
<path d="M11.9961 12.5C14.7561 12.5 16.9961 10.26 16.9961 7.5C16.9961 4.74 14.7561 2.5 11.9961 2.5C9.23609 2.5 6.99609 4.74 6.99609 7.5C6.99609 10.26 9.23609 12.5 11.9961 12.5Z" stroke="white" stroke-width="1.28571" stroke-linecap="round" stroke-linejoin="round"/>
<path opacity="0.4" d="M11.9968 15.5C7.25674 15.5 3.40674 18.63 3.40674 22.5" stroke="white" stroke-width="1.28571" stroke-linecap="round" stroke-linejoin="round"/>
<path opacity="0.4" d="M20.5873 22.4999C20.5873 21.5899 20.3773 20.7299 19.9873 19.9299" stroke="white" stroke-width="1.28571" stroke-linecap="round" stroke-linejoin="round"/>
</g>
</g>
<defs>
<clipPath id="clip0_1386_12656">
<rect width="24" height="24" fill="white"/>
</clipPath>
</defs>
</svg>
