<svg width="30" height="30" viewBox="0 0 30 30" fill="none" xmlns="http://www.w3.org/2000/svg">
<path d="M7.03125 1.875C5.73625 1.875 4.6875 2.925 4.6875 4.21875V25.7812C4.6875 27.075 5.7375 28.125 7.03125 28.125H22.9688C24.2625 28.125 25.3125 27.075 25.3125 25.7812V15.9375C25.3125 14.6943 24.8186 13.502 23.9396 12.6229C23.0605 11.7439 21.8682 11.25 20.625 11.25H18.2812C17.6596 11.25 17.0635 11.0031 16.624 10.5635C16.1844 10.124 15.9375 9.52785 15.9375 8.90625V6.5625C15.9375 5.3193 15.4436 4.12701 14.5646 3.24794C13.6855 2.36886 12.4932 1.875 11.25 1.875H7.03125Z" fill="#9AE600"/>
<path d="M16.2139 2.27002C17.247 3.46122 17.8148 4.9857 17.8126 6.56252V8.90627C17.8126 9.16502 18.0226 9.37502 18.2814 9.37502H20.6251C22.2019 9.37283 23.7264 9.94062 24.9176 10.9738C24.3677 8.88215 23.272 6.97414 21.7428 5.44488C20.2135 3.91561 18.3055 2.81997 16.2139 2.27002Z" fill="#9AE600"/>
</svg>
