<svg width="30" height="30" viewBox="0 0 30 30" fill="none" xmlns="http://www.w3.org/2000/svg">
<path fill-rule="evenodd" clip-rule="evenodd" d="M1.875 7.5C1.875 6.75408 2.17132 6.03871 2.69876 5.51126C3.22621 4.98382 3.94158 4.6875 4.6875 4.6875H25.3125C26.0584 4.6875 26.7738 4.98382 27.3012 5.51126C27.8287 6.03871 28.125 6.75408 28.125 7.5V22.5C28.125 23.2459 27.8287 23.9613 27.3012 24.4887C26.7738 25.0162 26.0584 25.3125 25.3125 25.3125H4.6875C3.94158 25.3125 3.22621 25.0162 2.69876 24.4887C2.17132 23.9613 1.875 23.2459 1.875 22.5V7.5ZM3.75 20.075V22.5C3.75 23.0175 4.17 23.4375 4.6875 23.4375H25.3125C25.5611 23.4375 25.7996 23.3387 25.9754 23.1629C26.1512 22.9871 26.25 22.7486 26.25 22.5V20.075L22.8875 16.7138C22.5359 16.3626 22.0594 16.1654 21.5625 16.1654C21.0656 16.1654 20.5891 16.3626 20.2375 16.7138L19.1375 17.8125L20.35 19.025C20.4421 19.1108 20.516 19.2143 20.5672 19.3293C20.6185 19.4443 20.646 19.5685 20.6482 19.6943C20.6505 19.8202 20.6273 19.9453 20.5802 20.062C20.533 20.1787 20.4628 20.2848 20.3738 20.3738C20.2848 20.4628 20.1787 20.533 20.062 20.5802C19.9453 20.6273 19.8202 20.6505 19.6943 20.6482C19.5685 20.646 19.4443 20.6185 19.3293 20.5672C19.2143 20.516 19.1108 20.4421 19.025 20.35L12.575 13.9013C12.2234 13.5501 11.7469 13.3529 11.25 13.3529C10.7531 13.3529 10.2766 13.5501 9.925 13.9013L3.75 20.0763V20.075ZM16.4062 10.3125C16.4062 9.93954 16.5544 9.58185 16.8181 9.31813C17.0819 9.05441 17.4395 8.90625 17.8125 8.90625C18.1855 8.90625 18.5431 9.05441 18.8069 9.31813C19.0706 9.58185 19.2188 9.93954 19.2188 10.3125C19.2188 10.6855 19.0706 11.0431 18.8069 11.3069C18.5431 11.5706 18.1855 11.7188 17.8125 11.7188C17.4395 11.7188 17.0819 11.5706 16.8181 11.3069C16.5544 11.0431 16.4062 10.6855 16.4062 10.3125Z" fill="#2B7FFF"/>
</svg>
