<svg width="34" height="34" viewBox="0 0 34 34" fill="none" xmlns="http://www.w3.org/2000/svg">
<mask id="mask0_1456_6110" style="mask-type:luminance" maskUnits="userSpaceOnUse" x="0" y="0" width="34" height="34">
<path d="M34 0H0V34H34V0Z" fill="white"/>
</mask>
<g mask="url(#mask0_1456_6110)">
<path d="M25.5004 23.7293C25.2737 23.7293 25.0612 23.6584 24.8629 23.5168C24.3954 23.1626 24.2962 22.4968 24.6504 22.0293C26.8746 19.0684 26.8746 14.9318 24.6504 11.9709C24.2962 11.5034 24.3954 10.8376 24.8629 10.4834C25.3304 10.1292 25.9962 10.2284 26.3504 10.6959C29.1271 14.4076 29.1271 19.5926 26.3504 23.3043C26.1379 23.5876 25.8262 23.7293 25.5004 23.7293Z" fill="white"/>
<path d="M28.0927 27.2711C27.866 27.2711 27.6535 27.2003 27.4552 27.0586C26.9877 26.7044 26.8885 26.0386 27.2427 25.5711C31.0252 20.5278 31.0252 13.4727 27.2427 8.42939C26.8885 7.96189 26.9877 7.29606 27.4552 6.94189C27.9227 6.58772 28.5885 6.68689 28.9427 7.15439C33.2918 12.9486 33.2918 21.0519 28.9427 26.8461C28.7443 27.1294 28.4185 27.2711 28.0927 27.2711Z" fill="white"/>
<path d="M19.8618 5.35445C18.2752 4.47611 16.2493 4.70278 14.181 5.99195L10.0443 8.58445C9.761 8.75445 9.43516 8.85361 9.10933 8.85361H7.79183H7.0835C3.65516 8.85361 1.771 10.7378 1.771 14.1661V19.8328C1.771 23.2611 3.65516 25.1453 7.0835 25.1453H7.79183H9.10933C9.43516 25.1453 9.761 25.2444 10.0443 25.4144L14.181 28.0069C15.4277 28.7861 16.646 29.1686 17.7793 29.1686C18.516 29.1686 19.2243 28.9986 19.8618 28.6444C21.4343 27.7661 22.3127 25.9386 22.3127 23.5019V10.4969C22.3127 8.06028 21.4343 6.23278 19.8618 5.35445Z" fill="white"/>
</g>
</svg>
