<svg width="55" height="55" viewBox="0 0 55 55" fill="none" xmlns="http://www.w3.org/2000/svg">
<g clip-path="url(#clip0_1431_4588)">
<mask id="mask0_1431_4588" style="mask-type:luminance" maskUnits="userSpaceOnUse" x="0" y="0" width="55" height="55">
<path d="M55 0H0V55H55V0Z" fill="white"/>
</mask>
<g mask="url(#mask0_1431_4588)">
<path d="M18.2644 33.9854C16.6144 32.1062 14.1623 30.9375 11.4582 30.9375C6.39359 30.9375 2.2915 35.0396 2.2915 40.1042C2.2915 41.8229 2.77275 43.45 3.62067 44.825C4.079 45.6042 4.67484 46.3146 5.36234 46.9104C6.9665 48.3771 9.09775 49.2708 11.4582 49.2708C14.804 49.2708 17.7144 47.4833 19.2957 44.825C20.1436 43.45 20.6248 41.8229 20.6248 40.1042C20.6248 37.7667 19.7311 35.6125 18.2644 33.9854ZM15.1248 43.725C14.7811 44.0687 14.3457 44.2292 13.9103 44.2292C13.4748 44.2292 13.0394 44.0687 12.6957 43.725L11.4811 42.5104L10.2207 43.7708C9.87692 44.1146 9.4415 44.275 9.00609 44.275C8.57067 44.275 8.13525 44.1146 7.7915 43.7708C7.12692 43.1062 7.12692 42.0063 7.7915 41.3417L9.05192 40.0812L7.83734 38.8667C7.17275 38.2021 7.17275 37.1021 7.83734 36.4375C8.50192 35.7729 9.60192 35.7729 10.2665 36.4375L11.4811 37.6521L12.6269 36.5063C13.2915 35.8417 14.3915 35.8417 15.0561 36.5063C15.7207 37.1708 15.7207 38.2708 15.0561 38.9354L13.9103 40.0812L15.1248 41.2958C15.7894 41.9604 15.7894 43.0375 15.1248 43.725Z" fill="#E63D4F"/>
<path d="M39.5312 5.56787H17.7604C11.2292 5.56787 6.875 9.92204 6.875 16.4533V26.6741C6.875 27.4762 7.7 28.0491 8.47917 27.8429C9.44167 27.6137 10.4271 27.4991 11.4583 27.4991C18.0125 27.4991 23.4208 32.8158 24.0167 39.2554C24.0625 39.8971 24.5896 40.4012 25.2083 40.4012H26.4688L36.1625 46.8637C37.5833 47.8262 39.5312 46.7721 39.5312 45.0304V40.4012C42.7854 40.4012 45.5125 39.3012 47.4146 37.4221C49.3167 35.4971 50.4167 32.77 50.4167 29.5158V16.4533C50.4167 9.92204 46.0625 5.56787 39.5312 5.56787ZM36.2771 24.7721H21.0146C20.1208 24.7721 19.3875 24.0387 19.3875 23.145C19.3875 22.2283 20.1208 21.495 21.0146 21.495H36.2771C37.1708 21.495 37.9042 22.2283 37.9042 23.145C37.9042 24.0387 37.1708 24.7721 36.2771 24.7721Z" fill="#E63D4F"/>
</g>
</g>
<defs>
<clipPath id="clip0_1431_4588">
<rect width="55" height="55" fill="white"/>
</clipPath>
</defs>
</svg>
