<svg width="36" height="36" viewBox="0 0 36 36" fill="none" xmlns="http://www.w3.org/2000/svg">
<g clip-path="url(#clip0_1751_3778)">
<mask id="mask0_1751_3778" style="mask-type:luminance" maskUnits="userSpaceOnUse" x="0" y="0" width="36" height="36">
<path d="M36 0H0V36H36V0Z" fill="white"/>
</mask>
<g mask="url(#mask0_1751_3778)">
<path d="M26.4294 8.58L10.5143 24.495C9.41934 23.01 8.81934 21.195 8.81934 19.23V12.165C8.81934 9.405 10.0493 6.93 11.9993 5.25V11.46C11.9993 12.045 12.4793 12.525 13.0493 12.525C13.6343 12.525 14.1143 12.045 14.1143 11.46V3.855C14.8043 3.51 15.5394 3.27 16.3044 3.135V8.625C16.3044 9.225 16.7844 9.69 17.3694 9.69C17.9544 9.69 18.4344 9.225 18.4344 8.625V3C22.0194 3.165 25.1094 5.415 26.4294 8.58Z" fill="white"/>
<path d="M27.1792 13.3198V19.2299C27.1792 24.2849 23.0542 28.4099 17.9992 28.4099C17.7292 28.4099 17.4592 28.3949 17.1892 28.3649C17.0692 28.3649 16.9492 28.3499 16.8442 28.3349C16.6492 28.3049 16.4542 28.2749 16.2742 28.2449C16.1992 28.2449 16.1392 28.2149 16.0492 28.1999C15.8392 28.1549 15.6292 28.0949 15.4342 28.0349C15.1042 27.9449 14.7893 27.8249 14.4893 27.7049C14.2943 27.6299 14.1143 27.5549 13.9343 27.4499C13.8893 27.4349 13.8593 27.4049 13.8143 27.3899C13.6643 27.3149 13.5143 27.2399 13.3643 27.1349L27.1792 13.3198Z" fill="white"/>
<path d="M32.6245 16.5V19.5C32.6245 27.57 26.0695 34.125 17.9995 34.125C14.8195 34.125 11.7745 33.105 9.26953 31.23L10.8895 29.61C12.9595 31.08 15.4195 31.875 17.9995 31.875C24.8245 31.875 30.3745 26.325 30.3745 19.5V16.5C30.3745 15.885 30.8845 15.375 31.4995 15.375C32.1145 15.375 32.6245 15.885 32.6245 16.5Z" fill="white"/>
<path d="M32.6544 3.34482C32.2044 2.89482 31.4694 2.89482 31.0194 3.34482L3.34434 31.0349C2.89434 31.4849 2.89434 32.2199 3.34434 32.6699C3.56934 32.8799 3.85434 32.9999 4.15434 32.9999C4.45434 32.9999 4.73934 32.8799 4.96434 32.6549L32.6544 4.96482C33.1194 4.51482 33.1194 3.79482 32.6544 3.34482Z" fill="white"/>
</g>
</g>
<defs>
<clipPath id="clip0_1751_3778">
<rect width="36" height="36" fill="white"/>
</clipPath>
</defs>
</svg>
