<svg width="99" height="99" viewBox="0 0 99 99" fill="none" xmlns="http://www.w3.org/2000/svg">
<path d="M24.131 14.4375C24.6474 13.8221 24.9042 13.0299 24.847 12.2286C24.7898 11.4273 24.4232 10.6797 23.8246 10.1438C23.2261 9.60801 22.4426 9.326 21.6399 9.35747C20.8372 9.38894 20.0782 9.73142 19.5234 10.3125C14.4557 15.9648 11.097 22.9397 9.83791 30.426C9.72144 31.2265 9.92313 32.0407 10.3998 32.6943C10.8764 33.3479 11.59 33.7888 12.3878 33.9226C13.1856 34.0563 14.004 33.8723 14.6678 33.41C15.3315 32.9476 15.7878 32.2437 15.9388 31.449C17.0036 25.1171 19.8445 19.2178 24.131 14.4375ZM79.4762 10.3125C79.2061 10.007 78.8782 9.75785 78.5115 9.57948C78.1448 9.40111 77.7465 9.29699 77.3394 9.27313C76.9323 9.24926 76.5245 9.30611 76.1395 9.4404C75.7544 9.5747 75.3997 9.78379 75.0958 10.0557C74.7918 10.3275 74.5446 10.6568 74.3684 11.0245C74.1921 11.3923 74.0903 11.7912 74.0688 12.1985C74.0473 12.6057 74.1066 13.0131 74.2431 13.3974C74.3796 13.7816 74.5908 14.1351 74.8644 14.4375C79.1522 19.2175 81.9946 25.1168 83.0608 31.449C83.1964 32.2585 83.6481 32.9811 84.3165 33.4576C84.6475 33.6936 85.0217 33.862 85.4177 33.9534C85.8138 34.0447 86.2239 34.0571 86.6248 33.99C87.0257 33.9228 87.4094 33.7773 87.754 33.5619C88.0986 33.3464 88.3975 33.0652 88.6334 32.7342C88.8694 32.4033 89.0378 32.0291 89.1292 31.6331C89.2205 31.237 89.233 30.8268 89.1658 30.426C87.9041 22.9389 84.5466 15.9639 79.4762 10.3125Z" fill="white"/>
<path fill-rule="evenodd" clip-rule="evenodd" d="M49.5001 9.28125C42.1155 9.28125 35.0333 12.2148 29.8116 17.4365C24.5899 22.6582 21.6563 29.7404 21.6563 37.125V40.2188C21.669 48.6304 18.5535 56.7463 12.9155 62.9888C12.5769 63.3644 12.3355 63.8172 12.2125 64.3077C12.0895 64.7982 12.0887 65.3114 12.21 65.8023C12.3313 66.2932 12.5711 66.7469 12.9084 67.1237C13.2456 67.5005 13.6701 67.7888 14.1447 67.9635C20.5137 70.3148 27.1797 72.0472 34.0726 73.0909C33.9174 75.2117 34.2011 77.3418 34.9061 79.348C35.6111 81.3542 36.7222 83.1936 38.1699 84.7512C39.6177 86.3087 41.371 87.5511 43.3205 88.4006C45.2699 89.2501 47.3736 89.6886 49.5001 89.6886C51.6266 89.6886 53.7302 89.2501 55.6797 88.4006C57.6291 87.5511 59.3825 86.3087 60.8302 84.7512C62.278 83.1936 63.3891 81.3542 64.094 79.348C64.799 77.3418 65.0828 75.2117 64.9276 73.0909C71.7256 72.0603 78.4012 70.3409 84.8513 67.9594C85.3252 67.7845 85.7489 67.4962 86.0857 67.1197C86.4224 66.7433 86.6619 66.2901 86.7831 65.7998C86.9044 65.3095 86.9038 64.797 86.7813 64.3069C86.6588 63.8169 86.4183 63.3644 86.0806 62.9888C80.444 56.7457 77.33 48.6299 77.3438 40.2188V37.125C77.3438 29.7404 74.4103 22.6582 69.1886 17.4365C63.9669 12.2148 56.8847 9.28125 49.5001 9.28125ZM40.2188 74.25C40.2188 74.1097 40.2188 73.9736 40.2271 73.8375C46.3966 74.3934 52.6036 74.3934 58.7731 73.8375L58.7813 74.25C58.7813 76.7115 57.8035 79.0723 56.0629 80.8128C54.3223 82.5534 51.9616 83.5312 49.5001 83.5312C47.0385 83.5312 44.6778 82.5534 42.9372 80.8128C41.1967 79.0723 40.2188 76.7115 40.2188 74.25Z" fill="white"/>
</svg>
