<svg width="22" height="18" viewBox="0 0 22 18" fill="none" xmlns="http://www.w3.org/2000/svg">
<path d="M15.741 17.5H5.74094C1.49094 17.5 0.100938 16.23 0.0009375 12.27C0.0009375 12.07 0.0709375 11.87 0.210938 11.73C0.350938 11.59 0.540938 11.5 0.750938 11.5C2.26094 11.5 3.49094 10.26 3.49094 8.75C3.49094 7.24 2.26094 6 0.750938 6C0.550938 6 0.360938 5.92 0.210938 5.77C0.0609375 5.62 -0.0090625 5.43 0.0009375 5.23C0.100938 1.27 1.49094 0 5.74094 0H15.741C20.151 0 21.491 1.34 21.491 5.75V11.75C21.491 16.16 20.151 17.5 15.741 17.5ZM1.53094 12.93C1.70094 15.47 2.56094 16 5.74094 16H15.741C19.321 16 19.991 15.32 19.991 11.75V5.75C19.991 2.18 19.321 1.5 15.741 1.5H5.74094C2.56094 1.5 1.70094 2.04 1.53094 4.57C3.50094 4.95 4.99094 6.68 4.99094 8.75C4.99094 10.82 3.50094 12.55 1.53094 12.93Z" fill="white"/>
<path d="M7.74121 5C7.33121 5 6.99121 4.66 6.99121 4.25V0.75C6.99121 0.34 7.33121 0 7.74121 0C8.15121 0 8.49121 0.34 8.49121 0.75V4.25C8.49121 4.66 8.15121 5 7.74121 5Z" fill="white"/>
<path d="M7.74121 17.5C7.33121 17.5 6.99121 17.16 6.99121 16.75V13.25C6.99121 12.84 7.33121 12.5 7.74121 12.5C8.15121 12.5 8.49121 12.84 8.49121 13.25V16.75C8.49121 17.16 8.15121 17.5 7.74121 17.5Z" fill="white"/>
<path d="M11.7814 12.3996C11.5414 12.3996 11.3014 12.3196 11.1014 12.1796C10.7414 11.9196 10.5614 11.4796 10.6414 11.0396L10.8514 9.8496L9.98135 8.9996C9.66135 8.6896 9.55135 8.2296 9.68135 7.8096C9.82135 7.3896 10.1814 7.0796 10.6214 7.0196L11.8214 6.8396L12.3614 5.74961C12.5614 5.34961 12.9614 5.09961 13.4014 5.09961C13.8514 5.09961 14.2514 5.34961 14.4414 5.74961L14.9814 6.8396L16.1814 7.0196C16.6214 7.0796 16.9814 7.3896 17.1214 7.8096C17.2614 8.2296 17.1414 8.6896 16.8214 8.9996L15.9514 9.8496L16.1614 11.0396C16.2414 11.4796 16.0614 11.9196 15.7014 12.1796C15.3414 12.4396 14.8714 12.4696 14.4814 12.2696L13.4114 11.7096L12.3314 12.2696C12.1614 12.3596 11.9714 12.3996 11.7814 12.3996ZM11.5114 8.3996L12.0214 8.8996C12.3014 9.1696 12.4214 9.5496 12.3614 9.9296L12.2414 10.6296L12.8714 10.2996C13.2114 10.1196 13.6114 10.1196 13.9514 10.2996L14.5814 10.6296L14.4614 9.9296C14.4014 9.5396 14.5214 9.1596 14.8014 8.8996L15.3114 8.3996L14.6114 8.2996C14.2314 8.2396 13.9014 7.9996 13.7314 7.6596L13.4214 7.0196L13.1114 7.6596C12.9414 7.9996 12.6114 8.2396 12.2314 8.2996L11.5114 8.3996Z" fill="white"/>
</svg>
