<svg width="18" height="18" viewBox="0 0 18 18" fill="none" xmlns="http://www.w3.org/2000/svg">
<g clip-path="url(#clip0_2298_1695)">
<mask id="mask0_2298_1695" style="mask-type:luminance" maskUnits="userSpaceOnUse" x="0" y="0" width="18" height="18">
<path d="M18 0H0V18H18V0Z" fill="white"/>
</mask>
<g mask="url(#mask0_2298_1695)">
<path d="M7.9875 14.3325V3.6675C7.9875 2.655 7.56 2.25 6.48 2.25H3.7575C2.6775 2.25 2.25 2.655 2.25 3.6675V14.3325C2.25 15.345 2.6775 15.75 3.7575 15.75H6.48C7.56 15.75 7.9875 15.345 7.9875 14.3325Z" fill="white"/>
<path d="M15.7502 14.3325V3.6675C15.7502 2.655 15.3227 2.25 14.2427 2.25H11.5202C10.4477 2.25 10.0127 2.655 10.0127 3.6675V14.3325C10.0127 15.345 10.4402 15.75 11.5202 15.75H14.2427C15.3227 15.75 15.7502 15.345 15.7502 14.3325Z" fill="white"/>
</g>
</g>
<defs>
<clipPath id="clip0_2298_1695">
<rect width="18" height="18" fill="white"/>
</clipPath>
</defs>
</svg>
