<svg width="30" height="30" viewBox="0 0 30 30" fill="none" xmlns="http://www.w3.org/2000/svg">
<path d="M7.03125 4.6875C6.16101 4.6875 5.32641 5.0332 4.71106 5.64856C4.0957 6.26391 3.75 7.09851 3.75 7.96875C3.75 8.83899 4.0957 9.67359 4.71106 10.2889C5.32641 10.9043 6.16101 11.25 7.03125 11.25H22.9688C23.839 11.25 24.6736 10.9043 25.2889 10.2889C25.9043 9.67359 26.25 8.83899 26.25 7.96875C26.25 7.09851 25.9043 6.26391 25.2889 5.64856C24.6736 5.0332 23.839 4.6875 22.9688 4.6875H7.03125ZM4.6875 14.0625C4.43886 14.0625 4.2004 14.1613 4.02459 14.3371C3.84877 14.5129 3.75 14.7514 3.75 15C3.75 15.2486 3.84877 15.4871 4.02459 15.6629C4.2004 15.8387 4.43886 15.9375 4.6875 15.9375H25.3125C25.5611 15.9375 25.7996 15.8387 25.9754 15.6629C26.1512 15.4871 26.25 15.2486 26.25 15C26.25 14.7514 26.1512 14.5129 25.9754 14.3371C25.7996 14.1613 25.5611 14.0625 25.3125 14.0625H4.6875ZM3.75 19.6875C3.75 19.4389 3.84877 19.2004 4.02459 19.0246C4.2004 18.8488 4.43886 18.75 4.6875 18.75H25.3125C25.5611 18.75 25.7996 18.8488 25.9754 19.0246C26.1512 19.2004 26.25 19.4389 26.25 19.6875C26.25 19.9361 26.1512 20.1746 25.9754 20.3504C25.7996 20.5262 25.5611 20.625 25.3125 20.625H4.6875C4.43886 20.625 4.2004 20.5262 4.02459 20.3504C3.84877 20.1746 3.75 19.9361 3.75 19.6875ZM4.6875 23.4375C4.43886 23.4375 4.2004 23.5363 4.02459 23.7121C3.84877 23.8879 3.75 24.1264 3.75 24.375C3.75 24.6236 3.84877 24.8621 4.02459 25.0379C4.2004 25.2137 4.43886 25.3125 4.6875 25.3125H25.3125C25.5611 25.3125 25.7996 25.2137 25.9754 25.0379C26.1512 24.8621 26.25 24.6236 26.25 24.375C26.25 24.1264 26.1512 23.8879 25.9754 23.7121C25.7996 23.5363 25.5611 23.4375 25.3125 23.4375H4.6875Z" fill="#FF6467"/>
</svg>
