<svg width="20" height="22" viewBox="0 0 20 22" fill="none" xmlns="http://www.w3.org/2000/svg">
<path d="M18.8236 3.98C17.2136 3.82 15.6036 3.7 13.9836 3.61V3.6L13.7636 2.3C13.6136 1.38 13.3936 0 11.0536 0H8.43357C6.10358 0 5.88358 1.32 5.72358 2.29L5.51358 3.57C4.58358 3.63 3.65358 3.69 2.72358 3.78L0.683575 3.98C0.263575 4.02 -0.0364245 4.39 0.00357552 4.8C0.0435755 5.21 0.403575 5.51 0.823575 5.47L2.86358 5.27C8.10357 4.75 13.3836 4.95 18.6836 5.48C18.7136 5.48 18.7336 5.48 18.7636 5.48C19.1436 5.48 19.4736 5.19 19.5136 4.8C19.5436 4.39 19.2436 4.02 18.8236 3.98Z" fill="#F44336"/>
<path d="M16.9837 6.89C16.7437 6.64 16.4137 6.5 16.0737 6.5H3.43366C3.09366 6.5 2.75366 6.64 2.52366 6.89C2.29366 7.14 2.16366 7.48 2.18366 7.83L2.80366 18.09C2.91366 19.61 3.05366 21.51 6.54366 21.51H12.9637C16.4537 21.51 16.5937 19.62 16.7037 18.09L17.3237 7.84C17.3437 7.48 17.2137 7.14 16.9837 6.89ZM11.4137 16.5H8.08367C7.67366 16.5 7.33366 16.16 7.33366 15.75C7.33366 15.34 7.67366 15 8.08367 15H11.4137C11.8237 15 12.1637 15.34 12.1637 15.75C12.1637 16.16 11.8237 16.5 11.4137 16.5ZM12.2537 12.5H7.25366C6.84366 12.5 6.50366 12.16 6.50366 11.75C6.50366 11.34 6.84366 11 7.25366 11H12.2537C12.6637 11 13.0037 11.34 13.0037 11.75C13.0037 12.16 12.6637 12.5 12.2537 12.5Z" fill="#F44336"/>
</svg>
