<svg width="17" height="18" viewBox="0 0 17 18" fill="none" xmlns="http://www.w3.org/2000/svg">
<path d="M15.9623 3.28375C14.6673 3.16042 13.4802 3.08333 12.324 3.00625L12.2007 2.26625C12.0927 1.52625 11.8615 0 9.53357 0H7.39065C5.09355 0 4.8469 1.46458 4.72357 2.25083L4.60024 2.9754C3.93732 3.02165 3.28982 3.05248 2.6269 3.11415L0.94647 3.28375C0.360637 3.34542 -0.0556134 3.85417 0.00605324 4.44C0.0677199 4.97958 0.514803 5.39583 1.05439 5.39583C1.08522 5.39583 1.13147 5.39583 1.1623 5.39583L2.8273 5.22625C3.7523 5.14917 4.69272 5.07208 5.61774 5.02583C7.49857 4.94875 9.3794 4.97958 11.2757 5.07208C12.6786 5.13375 14.1432 5.24167 15.7465 5.39583C15.7773 5.39583 15.8082 5.39583 15.839 5.39583C16.3786 5.39583 16.8411 4.97958 16.8873 4.44C16.9644 3.85417 16.5482 3.33 15.9623 3.28375Z" fill="#F44336"/>
<path d="M14.3748 7.35431C14.1127 7.06139 13.7273 6.90723 13.3419 6.90723H3.59856C3.21315 6.90723 2.82773 7.07681 2.56565 7.35431C2.30356 7.64723 2.16481 8.03264 2.19565 8.41806L2.67358 14.5231C2.76608 15.8335 2.87398 17.4676 5.83398 17.4676H11.1065C14.0665 17.4676 14.1744 15.8335 14.2669 14.5231L14.7448 8.41806C14.7756 8.03264 14.6369 7.64723 14.3748 7.35431Z" fill="#F44336"/>
</svg>
