<svg width="24" height="24" viewBox="0 0 24 24" fill="none" xmlns="http://www.w3.org/2000/svg">
<mask id="mask0_1711_1439" style="mask-type:luminance" maskUnits="userSpaceOnUse" x="0" y="0" width="24" height="24">
<path d="M24 0H0V24H24V0Z" fill="white"/>
</mask>
<g mask="url(#mask0_1711_1439)">
<path d="M12 12C14.7614 12 17 9.76142 17 7C17 4.23858 14.7614 2 12 2C9.23858 2 7 4.23858 7 7C7 9.76142 9.23858 12 12 12Z" fill="white"/>
<path d="M11.9997 14.5C6.98967 14.5 2.90967 17.86 2.90967 22C2.90967 22.28 3.12967 22.5 3.40967 22.5H20.5897C20.8697 22.5 21.0897 22.28 21.0897 22C21.0897 17.86 17.0097 14.5 11.9997 14.5Z" fill="white"/>
</g>
</svg>
