<svg width="21" height="18" viewBox="0 0 21 18" fill="none" xmlns="http://www.w3.org/2000/svg">
<path d="M19.4 2.92C18.99 2.7 18.13 2.47 16.96 3.29L15.49 4.33C15.38 1.22 14.03 0 10.75 0H4.75C1.33 0 0 1.33 0 4.75V12.75C0 15.05 1.25 17.5 4.75 17.5H10.75C14.03 17.5 15.38 16.28 15.49 13.17L16.96 14.21C17.58 14.65 18.12 14.79 18.55 14.79C18.92 14.79 19.21 14.68 19.4 14.58C19.81 14.37 20.5 13.8 20.5 12.37V5.13C20.5 3.7 19.81 3.13 19.4 2.92ZM9.25 8.13C8.22 8.13 7.37 7.29 7.37 6.25C7.37 5.21 8.22 4.37 9.25 4.37C10.28 4.37 11.13 5.21 11.13 6.25C11.13 7.29 10.28 8.13 9.25 8.13Z" fill="white"/>
</svg>
