<svg width="36" height="36" viewBox="0 0 36 36" fill="none" xmlns="http://www.w3.org/2000/svg">
<g clip-path="url(#clip0_1751_3788)">
<mask id="mask0_1751_3788" style="mask-type:luminance" maskUnits="userSpaceOnUse" x="0" y="0" width="36" height="36">
<path d="M36 0H0V36H36V0Z" fill="white"/>
</mask>
<g mask="url(#mask0_1751_3788)">
<path d="M27.0004 25.1254C26.7604 25.1254 26.5354 25.0504 26.3254 24.9004C25.8304 24.5254 25.7254 23.8204 26.1004 23.3254C27.9904 20.8054 28.3954 17.4604 27.1804 14.5655C26.9404 13.9955 27.2104 13.3355 27.7804 13.0955C28.3504 12.8555 29.0104 13.1255 29.2504 13.6955C30.7804 17.3254 30.2554 21.5404 27.9004 24.6904C27.6754 24.9754 27.3454 25.1254 27.0004 25.1254Z" fill="white"/>
<path d="M29.7455 28.8753C29.5055 28.8753 29.2805 28.8003 29.0705 28.6503C28.5755 28.2753 28.4705 27.5703 28.8455 27.0753C32.0555 22.8003 32.7605 17.0703 30.6905 12.1353C30.4505 11.5653 30.7205 10.9053 31.2905 10.6653C31.8605 10.4253 32.5205 10.6953 32.7605 11.2653C35.1455 16.9353 34.3355 23.5053 30.6455 28.4253C30.4355 28.7253 30.0905 28.8753 29.7455 28.8753Z" fill="white"/>
<path d="M21.0598 19.44C22.0048 18.495 23.6248 19.17 23.6248 20.505V24.9C23.6248 27.48 22.6948 29.415 21.0298 30.345C20.3548 30.72 19.6048 30.9 18.8248 30.9C17.6248 30.9 16.3348 30.495 15.0148 29.67L14.0547 29.07C13.2447 28.56 13.1097 27.42 13.7847 26.745L21.0598 19.44Z" fill="white"/>
<path d="M32.655 3.34482C32.205 2.89482 31.47 2.89482 31.02 3.34482L23.595 10.7698C23.505 8.36982 22.605 6.56982 21.015 5.68482C19.335 4.75482 17.19 4.99482 15 6.35982L10.635 9.08982C10.335 9.26982 9.99 9.37482 9.645 9.37482H8.25H7.5C3.87 9.37482 1.875 11.3698 1.875 14.9998V20.9999C1.875 24.6299 3.87 26.6249 7.5 26.6249H7.74L3.33 31.0349C2.88 31.4849 2.88 32.2199 3.33 32.6699C3.57 32.8799 3.855 32.9999 4.155 32.9999C4.455 32.9999 4.74 32.8799 4.965 32.6549L32.655 4.96482C33.12 4.51482 33.12 3.79482 32.655 3.34482Z" fill="white"/>
</g>
</g>
<defs>
<clipPath id="clip0_1751_3788">
<rect width="36" height="36" fill="white"/>
</clipPath>
</defs>
</svg>
