<svg width="29" height="29" viewBox="0 0 29 29" fill="none" xmlns="http://www.w3.org/2000/svg">
<path d="M14.4998 12.0835H4.83317C3.49848 12.0835 2.4165 13.1655 2.4165 14.5002V24.1668C2.4165 25.5015 3.49848 26.5835 4.83317 26.5835H14.4998C15.8345 26.5835 16.9165 25.5015 16.9165 24.1668V14.5002C16.9165 13.1655 15.8345 12.0835 14.4998 12.0835Z" stroke="white" stroke-width="2" stroke-linecap="round" stroke-linejoin="round"/>
<path d="M21.6535 16.9165L25.8827 12.6874C26.331 12.1901 26.5791 11.5444 26.5791 10.8749C26.5791 10.2054 26.331 9.5596 25.8827 9.06237L19.841 3.11737C19.3438 2.66904 18.698 2.4209 18.0285 2.4209C17.359 2.4209 16.7132 2.66904 16.216 3.11737L12.0835 7.24987" stroke="white" stroke-width="2" stroke-linecap="round" stroke-linejoin="round"/>
<path d="M7.25 21.75H7.26125" stroke="white" stroke-width="2" stroke-linecap="round" stroke-linejoin="round"/>
<path d="M12.0835 16.9165H12.0947" stroke="white" stroke-width="2" stroke-linecap="round" stroke-linejoin="round"/>
<path d="M18.125 7.25H18.1363" stroke="white" stroke-width="2" stroke-linecap="round" stroke-linejoin="round"/>
<path d="M21.75 10.875H21.7613" stroke="white" stroke-width="2" stroke-linecap="round" stroke-linejoin="round"/>
</svg>
